<?xml version="1.0" encoding="utf-8"?>
<!-- Generator: Adobe Illustrator 23.0.5, SVG Export Plug-In . SVG Version: 6.00 Build 0)  -->
<svg version="1.1" id="图层_1" xmlns="http://www.w3.org/2000/svg" xmlns:xlink="http://www.w3.org/1999/xlink" x="0px" y="0px"
	 viewBox="0 0 39.4 39.4" style="enable-background:new 0 0 39.4 39.4;" xml:space="preserve">
<style type="text/css">
	.st0{fill:#24324C;}
</style>
<title>资源 2</title>
<path class="st0" d="M35.5,3.9H3.9C1.8,3.9,0,5.7,0,7.9v23.7c0,2.2,1.8,3.9,3.9,3.9h31.6c2.2,0,3.9-1.8,3.9-3.9V7.9
	C39.4,5.7,37.7,3.9,35.5,3.9z M10.8,25.6h-2c-0.5,0-1-0.4-1-1v-9.9c0-0.5,0.4-1,1-1h2c0.5,0,1,0.4,1,1v9.9
	C11.8,25.2,11.4,25.6,10.8,25.6z M20.7,25.6h-2c-0.5,0-1-0.4-1-1v-2c0-0.5,0.4-1,1-1h2c0.5,0,1,0.4,1,1v2
	C21.7,25.2,21.3,25.6,20.7,25.6z M20.7,17.7h-2c-0.5,0-1-0.4-1-1v-2c0-0.5,0.4-1,1-1h2c0.5,0,1,0.4,1,1v2
	C21.7,17.3,21.3,17.7,20.7,17.7z M30.6,25.6h-2c-0.5,0-1-0.4-1-1v-9.9c0-0.5,0.4-1,1-1h2c0.5,0,1,0.4,1,1v9.9
	C31.6,25.2,31.1,25.6,30.6,25.6z"/>
</svg>
