<?xml version="1.0" encoding="utf-8"?>
<!-- Generator: Adobe Illustrator 23.0.5, SVG Export Plug-In . SVG Version: 6.00 Build 0)  -->
<svg version="1.1" id="图层_1" xmlns="http://www.w3.org/2000/svg" xmlns:xlink="http://www.w3.org/1999/xlink" x="0px" y="0px"
	 viewBox="0 0 32 42" style="enable-background:new 0 0 32 42;" xml:space="preserve">
<style type="text/css">
	.st0{fill:#2E7D32;}
	.st1{fill:#E3FCE5;}
	.st2{fill:#FFFFFF;}
</style>
<title>资源 2</title>
<path class="st0" d="M32,42H0V0h22l10,10V42z"/>
<path class="st1" d="M30.5,11H21V1.5L30.5,11z"/>
<path class="st2" d="M18.4,32.6L15.9,28c-0.1-0.2-0.2-0.5-0.3-0.9h0c0,0.2-0.2,0.5-0.3,1l-2.4,4.5H9.1l4.5-7l-4.1-7h3.8l2,4.2
	c0.2,0.3,0.3,0.7,0.4,1.2h0c0.1-0.3,0.2-0.7,0.4-1.2l2.2-4.2H22l-4.2,6.9l4.3,7.1L18.4,32.6L18.4,32.6z"/>
</svg>
