<?xml version="1.0" encoding="utf-8"?>
<!-- Generator: Adobe Illustrator 23.0.5, SVG Export Plug-In . SVG Version: 6.00 Build 0)  -->
<svg version="1.1" id="图层_1" xmlns="http://www.w3.org/2000/svg" xmlns:xlink="http://www.w3.org/1999/xlink" x="0px" y="0px"
	 viewBox="0 0 32 42" style="enable-background:new 0 0 32 42;" xml:space="preserve">
<style type="text/css">
	.st0{fill:#CC3241;}
	.st1{fill:#FBE9E7;}
	.st2{fill:#FFEBEE;}
</style>
<title>资源 2</title>
<path class="st0" d="M32,42H0V0h22l10,10V42z"/>
<path class="st1" d="M30.5,11H21V1.5L30.5,11z"/>
<path class="st2" d="M7.8,26.5V30h-2V20h3.4c1,0,1.8,0.3,2.4,0.9s0.9,1.4,0.9,2.4s-0.3,1.7-0.9,2.3s-1.4,0.8-2.4,0.8H7.8z M7.8,24.8
	h1.4c0.4,0,0.7-0.1,0.9-0.4s0.3-0.6,0.3-1.1c0-0.5-0.1-0.9-0.3-1.2c-0.2-0.3-0.5-0.4-0.9-0.4H7.8V24.8z M13.8,30V20h2.6
	c1.2,0,2.1,0.4,2.8,1.1c0.7,0.7,1,1.8,1.1,3v1.6c0,1.3-0.3,2.3-1,3.1c-0.7,0.7-1.6,1.1-2.9,1.1H13.8z M15.8,21.7v6.6h0.6
	c0.7,0,1.1-0.2,1.4-0.5s0.4-1,0.4-1.8v-1.7c0-0.9-0.1-1.6-0.4-1.9c-0.3-0.4-0.7-0.6-1.3-0.6L15.8,21.7L15.8,21.7z M26.8,25.9h-3.1
	V30h-2V20h5.5v1.7h-3.5v2.5h3.1V25.9z"/>
</svg>
