<?xml version="1.0" encoding="utf-8"?>
<!-- Generator: Adobe Illustrator 23.0.5, SVG Export Plug-In . SVG Version: 6.00 Build 0)  -->
<svg version="1.1" id="图层_1" xmlns="http://www.w3.org/2000/svg" xmlns:xlink="http://www.w3.org/1999/xlink" x="0px" y="0px"
	 viewBox="0 0 32 42" style="enable-background:new 0 0 32 42;" xml:space="preserve">
<style type="text/css">
	.st0{fill:#E64A19;}
	.st1{fill:#FFF3E0;}
	.st2{fill:#FFFFFF;}
</style>
<title>资源 2</title>
<path class="st0" d="M32,42H0V0h22l10,10V42z"/>
<path class="st1" d="M30.5,11H21V1.5L30.5,11z"/>
<path class="st2" d="M15.4,26.5V30h-2V20h3.4c1,0,1.8,0.3,2.4,0.9s0.9,1.4,0.9,2.4s-0.3,1.7-0.9,2.3c-0.6,0.6-1.4,0.8-2.4,0.8h-1.4
	V26.5z M15.4,24.8h1.4c0.4,0,0.7-0.1,0.9-0.4c0.2-0.3,0.3-0.6,0.3-1.1s-0.1-0.9-0.3-1.2c-0.2-0.3-0.5-0.4-0.9-0.4h-1.4V24.8z
	 M7,26.5V30H5V20h3.4c1,0,1.8,0.3,2.4,0.9s0.9,1.4,0.9,2.4s-0.3,1.7-0.9,2.3c-0.6,0.6-1.4,0.8-2.4,0.8H7V26.5z M7,24.8h1.4
	c0.4,0,0.7-0.1,0.9-0.4c0.2-0.3,0.3-0.6,0.3-1.1s-0.1-0.9-0.3-1.2c-0.2-0.3-0.5-0.4-0.9-0.4H7V24.8z M28,21.7h-2.5V30h-2v-8.3h-2.4
	V20H28V21.7z"/>
</svg>
