<?xml version="1.0" encoding="utf-8"?>
<!-- Generator: Adobe Illustrator 23.0.5, SVG Export Plug-In . SVG Version: 6.00 Build 0)  -->
<svg version="1.1" id="图层_1" xmlns="http://www.w3.org/2000/svg" xmlns:xlink="http://www.w3.org/1999/xlink" x="0px" y="0px"
	 viewBox="0 0 32 42" style="enable-background:new 0 0 32 42;" xml:space="preserve">
<style type="text/css">
	.st0{fill:#727272;}
	.st1{fill:#F2F2F2;}
	.st2{fill:#FFFFFF;}
</style>
<title>资源 2</title>
<path class="st0" d="M32,42H0V0h22l10,10V42z"/>
<path class="st1" d="M30.5,11H21V1.5L30.5,11z"/>
<polygon class="st2" points="12.5,21.8 10.8,21.8 10.8,30 8.8,30 8.8,21.8 7.1,21.8 7.1,20 12.5,20 "/>
<path class="st2" d="M17.1,30l-0.6-1.8c-0.2-0.6-0.4-1.1-0.5-1.8h0c-0.2,0.6-0.3,1.2-0.5,1.8L14.9,30H13l1.9-5.1L13,20h2l0.6,1.9
	c0.2,0.5,0.3,1,0.5,1.6h0c0.2-0.6,0.3-1.1,0.4-1.6L17,20H19l-1.9,5l2,5H17.1z"/>
<polygon class="st2" points="24.9,21.8 23.2,21.8 23.2,30 21.2,30 21.2,21.8 19.5,21.8 19.5,20 24.9,20 "/>
</svg>
